#!OML:ASF E:/inclinewalkrobotboard/Project1/Captureday1/Session1/subject1.ASF
:FULLY-SPECIFIED
:DEGREES
151
root 0 0 0 -4.080932899687035 0.2138354075338995 1.32142985425563
lowerback 12.117362148171257 -0.4189559870794821 -2.0614284151197078
upperback 1.39999328782811 -0.6552713904907668 1.2548937524463086
thorax -5.324188838592062 -0.23646673457610468 2.502989840267734
lowerneck -17.614158719622065 -2.9969398988439364 -2.205666215628048
upperneck 17.843898319461594 -3.4077605386927527 -0.2788939071904508
head 8.34927081062838 -1.793705207946024 -0.12614140332076973
rclavicle 3.41959047440707E-15 2.0248382775157132E-15
rhumerus -49.945642517901994 -18.864273667015475 -75.04427457216477
rradius 23.420324211710444
rwrist -2.4797209009482195
rhand -21.321921540501783 27.427618466379236
rfingers 7.125020000000054
rthumb 5.034490521518322 -2.8134681239743156
lclavicle -7.625334519016947E-17 -6.9810566432741835E-15
lhumerus -35.798496301072575 -1.7701555569270244 84.84820802795869
lradius 29.092690124466223
lwrist 10.215015868583102
lhand -30.71786416149014 24.91905094000612
lfingers 7.125020000000039
lthumb -3.9689906799277495 55.420058392813104
rfemur -27.62518901620436 27.172222552948398 41.13771126708518
rtibia 23.7228261083197
rfoot -8.877222732332651 -12.273030733740324
rtoes -2.8222991405189646
lfemur -10.133865351716949 2.235379342493367 -17.382898809305217
ltibia 60.39297660071732
lfoot 4.899101461871393 -15.290423972607588
ltoes -15.697645985768991
152
root 0 0 0 -4.701895597626802 -0.80219456098461 0.4879174496083607
lowerback 12.429613368923206 -0.11913521093124402 -1.067018596434135
upperback 1.543414503824481 -0.13382801035700553 1.3438720033099898
thorax -5.344357398406963 0.016670758845219513 1.9517192116029851
lowerneck -17.64243057690875 -3.088978198831299 -2.107894318794695
upperneck 17.917385929107162 -3.577733347072054 -0.1687097490160676
head 8.387202550706307 -1.8613033488101178 -0.1347478093492187
rclavicle 3.1299206292385016E-15 1.7247316874360508E-15
rhumerus -49.65159037185719 -18.781212837720705 -75.07834046372118
rradius 23.534055333814905
rwrist -2.609581369883209
rhand -21.377366442267085 27.453459886203312
rfingers 7.125020000000054
rthumb 4.982188564500454 -2.7955395059464383
lclavicle -4.706844485664628E-16 -7.038425608927601E-15
lhumerus -36.02255441833874 -1.6841459505094143 84.95815032984096
lradius 29.037651704332575
lwrist 10.265038051102621
lhand -30.659138251339304 24.89155414129903
lfingers 7.125020000000039
lthumb -3.913931342112665 55.37934318501477
rfemur -27.313785153750274 26.817900392640922 40.88386889762211
rtibia 23.862162798879325
rfoot -8.93677518311071 -12.141800269086728
rtoes -2.669571199335273
lfemur -10.989207228793823 2.0898957094265764 -16.90826219715471
ltibia 60.62778657034769
lfoot 5.056680821216226 -15.3395559650676
ltoes -15.630991938227742
153
root 0 0 0 -6.839243194835866 -3.679290930430236 -2.4868662681007567
lowerback 12.94330805407731 0.9056103822123669 2.358142042677887
upperback 1.9484354553343373 1.632416549327788 1.634699277840685
thorax -5.16587340181078 0.8408884076439218 0.07898426101603562
lowerneck -17.706214337546356 -3.3975430525404464 -1.8719377817669882
upperneck 18.408293776978226 -4.194226674340287 0.37121505787732767
head 8.638905525948825 -2.086844386019331 -0.10297302279050546
rclavicle 3.5095591297519213E-15 3.0152574827046913E-15
rhumerus -45.92675751643157 -19.18224248551109 -83.79000588004656
rradius 22.533876380407698
rwrist -7.603144680342091
rhand -18.484511834997477 24.45787809972273
rfingers 7.125020000000052
rthumb 7.7761359148019125 -5.462177517454396
lclavicle 5.236152969546607E-16 -1.984670698940311E-15
lhumerus -34.353331693012706 -3.4053314464570725 85.76225819685257
lradius 28.36785863704413
lwrist 11.899955271524572
lhand -27.19991540828178 25.590345436465448
lfingers 7.12502000000004
lthumb -0.6132083994933311 55.55996582302211
rfemur -25.472152224855492 24.331627458450498 38.9300194970583
rtibia 25.244327300794843
rfoot -8.963316073440321 -11.557849939432796
rtoes -2.7513839083139118
lfemur -13.827340228824276 1.8171879847988333 -15.41291135858116
ltibia 59.932350771454814
lfoot 4.870958273714205 -14.987520598851507
ltoes -15.051455768801594
154
root 0 0 0 -7.550701684762707 -6.838629207196339 -4.892869175075091
lowerback 13.404842111492286 1.8090845942500775 4.796320752137934
upperback 2.1424474514313907 3.070297740533399 1.5669263675084868
thorax -5.2084247745777095 1.5097304414621582 -1.575302511534196
lowerneck -17.302877387897556 -3.7190842510077937 -1.7117237893369521
upperneck 19.10403839141423 -4.831790344249746 0.7603642279812046
head 8.84703522151341 -2.340380767127963 -0.07197168839823287
rclavicle 6.217200186333294E-15 6.810681920359214E-16
rhumerus -40.103345121864706 -17.837440966347216 -85.65701948838169
rradius 23.847934342162848
rwrist -9.375544919611869
rhand -19.14948876191331 24.80516917760272
rfingers 7.1250200000000605
rthumb 7.156046561478075 -5.151264064532105
lclavicle 6.04284704573707E-16 -4.14740172534705E-15
lhumerus -37.145231147170044 -0.9162092857859045 88.41862015022295
lradius 28.228582573332016
lwrist 11.993145769866846
lhand -27.510978915754237 24.906834768741007
lfingers 7.125020000000032
lthumb -0.9128366644120369 54.95254770029296
rfemur -24.057902563421692 21.76083649843784 37.6417891879408
rtibia 26.03030583331441
rfoot -9.620893230817474 -10.488901756580425
rtoes -2.4218162325650177
lfemur -18.503200049667676 0.8401612863878558 -15.276329324913458
ltibia 57.57684408996205
lfoot 4.193944161132428 -13.655896727476637
ltoes -14.730448076454186
155
root 0 0 0 -7.9451812506612 -7.5769218250767825 -5.178101026063836
lowerback 13.586282684112753 1.9083361009565516 5.120501689998104
upperback 2.2436873943812703 3.226328277147778 1.5436883358931381
thorax -5.208076907914186 1.5840880711287395 -1.8142561332013827
lowerneck -17.197381539537805 -3.732953759132914 -1.6504763233807613
upperneck 19.10120091150281 -4.891077427832866 0.8443356709554473
head 8.826355450150757 -2.356519703721565 -0.05758671602142251
rclavicle 3.940703996067207E-15 6.382856638182648E-16
rhumerus -45.10077037605577 -18.32480078993602 -79.73389063860753
rradius 24.18505618386395
rwrist -6.1989489787174
rhand -20.948102161954935 26.897562255001
rfingers 7.12502000000006
rthumb 5.413168471190183 -3.2660643681463313
lclavicle -3.1265430127450245E-15 -6.1134762208811E-15
lhumerus -38.58202839605197 0.05500363626194371 87.23179803560987
lradius 27.759170487916325
lwrist 10.117280457454651
lhand -30.07567859505949 24.07812065358449
lfingers 7.125020000000032
lthumb -3.3602985852774943 54.48155786889843
rfemur -22.171842407949427 19.261287818824414 36.2835859069406
rtibia 26.74561576132102
rfoot -10.686489904406196 -8.161166342886435
rtoes -3.680020117809338
lfemur -19.526552915991296 0.0020443101005191977 -15.356649845986087
ltibia 54.07170632759024
lfoot 3.6123105852439217 -11.681742675506857
ltoes -14.325334660708316
